<?xml version="1.0" encoding="UTF-8" standalone="no"?>
<svg
   xmlns:dc="http://purl.org/dc/elements/1.1/"
   xmlns:cc="http://creativecommons.org/ns#"
   xmlns:rdf="http://www.w3.org/1999/02/22-rdf-syntax-ns#"
   xmlns:svg="http://www.w3.org/2000/svg"
   xmlns="http://www.w3.org/2000/svg"
   xmlns:sodipodi="http://sodipodi.sourceforge.net/DTD/sodipodi-0.dtd"
   xmlns:inkscape="http://www.inkscape.org/namespaces/inkscape"
   version="1.0"
   width="500pt"
   height="500pt"
   viewBox="0 0 500 500"
   preserveAspectRatio="xMidYMid meet"
   id="svg2"
   inkscape:version="0.92.1 r15371"
   sodipodi:docname="grid_map_example.svg">
  <defs
     id="defs72" />
  <sodipodi:namedview
     pagecolor="#ffffff"
     bordercolor="#666666"
     borderopacity="1"
     objecttolerance="10"
     gridtolerance="10"
     guidetolerance="10"
     inkscape:pageopacity="0"
     inkscape:pageshadow="2"
     inkscape:window-width="1920"
     inkscape:window-height="986"
     id="namedview70"
     showgrid="false"
     inkscape:zoom="0.97803489"
     inkscape:cx="322.63319"
     inkscape:cy="314.57654"
     inkscape:window-x="-11"
     inkscape:window-y="-11"
     inkscape:window-maximized="1"
     inkscape:current-layer="svg2" />
  <metadata
     id="metadata4">
Created by potrace 1.14, written by Peter Selinger 2001-2017
<rdf:RDF>
  <cc:Work
     rdf:about="">
    <dc:format>image/svg+xml</dc:format>
    <dc:type
       rdf:resource="http://purl.org/dc/dcmitype/StillImage" />
    <dc:title></dc:title>
  </cc:Work>
</rdf:RDF>
</metadata>
  <g
     transform="matrix(0.1,0,0,-0.1,0,500)"
     id="g6"
     style="fill:#000000;stroke:none">
    <path
       d="m 178,4458 c -2,-255 -2,-1337 0,-2406 l 2,-1942 h 2395 2395 v 425 c 0,234 1,661 1,950 0,289 -1,1180 -1,1980 V 4920 H 2575 180 Z m 942,-23 V 3980 H 670 220 v 455 455 h 450 450 z m 960,0 v -455 h -455 -455 v 455 455 h 455 455 z m 950,0 v -455 h -455 -455 v 455 455 h 455 455 z m 960,0 v -455 h -455 -455 v 455 455 h 455 455 z m 950,0 v -455 h -450 -450 v 455 455 h 450 450 z M 1120,3475 V 3020 H 670 220 v 455 455 h 450 450 z m 960,0 v -455 h -455 -455 v 455 455 h 455 455 z m 950,0 v -455 h -455 -455 v 448 c 0,247 3,452 7,455 3,4 208,7 455,7 h 448 z m 960,0 v -455 h -455 -455 v 455 455 h 455 455 z m 950,0 v -455 h -450 -450 v 455 455 h 450 450 z M 1120,2510 V 2050 H 670 220 v 460 460 h 450 450 z m 955,0 v -455 l -452,-3 -453,-2 v 460 460 l 453,-2 452,-3 z m 955,0 v -460 l -452,2 -453,3 -3,445 c -1,245 0,451 3,458 3,9 104,12 455,12 h 450 z m 960,0 v -460 h -455 -455 v 460 460 h 455 455 z m 950,0 v -460 h -450 -450 v 460 460 h 450 450 z m -3822,-962 2,-458 H 670 220 v 460 460 l 448,-2 447,-3 z m 960,0 2,-458 h -455 -455 v 460 460 l 453,-2 452,-3 z m 952,2 v -460 l -452,2 -453,3 -3,445 c -1,245 0,451 3,458 3,9 104,12 455,12 h 450 z m 960,0 v -460 h -455 -455 v 453 c 0,250 3,457 7,460 3,4 208,7 455,7 h 448 z m 950,0 v -460 h -450 -450 v 453 c 0,250 3,457 7,460 3,4 206,7 450,7 h 443 z M 1120,590 V 140 H 670 220 v 450 450 h 450 450 z m 960,0 V 140 h -455 -455 v 450 450 h 455 455 z m 950,0 V 140 h -455 -455 v 450 450 h 455 455 z m 960,0 V 140 h -455 -455 v 450 450 h 455 455 z m 950,0 V 140 h -450 -450 v 450 450 h 450 450 z"
       id="path8"
       inkscape:connector-curvature="0" />
    <path
       d="m 599,4661 c -35,-11 -72,-32 -81,-45 -11,-15 -10,-48 2,-66 8,-12 14,-12 45,3 40,19 87,22 116,7 24,-14 26,-78 3,-123 -10,-18 -49,-68 -89,-112 -84,-93 -99,-118 -91,-151 l 6,-24 h 170 170 v 24 c 0,54 -4,56 -117,56 H 627 l 76,79 c 91,95 119,146 121,217 1,61 -21,99 -75,126 -35,18 -104,22 -150,9 z"
       id="path10"
       inkscape:connector-curvature="0" />
    <path
       d="m 1338,4613 c -55,-38 -68,-52 -68,-73 0,-40 8,-41 61,-15 27,14 51,25 54,25 3,0 5,-74 5,-165 v -165 h -54 c -57,0 -71,-14 -59,-60 5,-20 12,-20 157,-18 l 151,3 v 35 c 0,35 0,35 -47,38 l -48,3 v 220 219 h -42 c -35,0 -56,-10 -110,-47 z"
       id="path12"
       inkscape:connector-curvature="0" />
    <path
       d="m 1753,4617 c -58,-39 -63,-45 -63,-79 0,-21 3,-38 8,-38 4,0 25,11 47,25 22,13 43,25 48,25 4,0 7,-74 7,-165 v -165 h -55 -55 v -40 -41 l 153,3 152,3 v 35 c 0,35 0,35 -47,38 l -48,3 v 220 219 l -42,-1 c -33,0 -57,-10 -105,-42 z"
       id="path14"
       inkscape:connector-curvature="0" />
    <path
       d="m 2454,4647 c -2,-7 -3,-69 -2,-138 l 3,-124 75,-5 c 87,-6 115,-19 124,-56 21,-83 -65,-127 -173,-89 -47,16 -55,10 -49,-42 4,-40 46,-58 139,-58 66,0 81,3 118,28 77,51 103,162 55,235 -22,34 -90,62 -151,62 h -53 v 55 55 h 95 c 92,0 95,1 101,24 14,59 11,61 -139,64 -107,2 -139,0 -143,-11 z"
       id="path16"
       inkscape:connector-curvature="0" />
    <path
       d="m 3447,4656 c -53,-20 -67,-34 -67,-72 0,-39 4,-40 53,-19 77,32 137,12 137,-45 0,-42 -40,-70 -101,-70 h -49 v -40 -40 h 44 c 111,0 163,-64 100,-127 -22,-22 -32,-25 -73,-21 -26,3 -62,12 -81,21 -18,10 -35,17 -37,17 -2,0 -3,-19 -1,-42 3,-40 7,-45 48,-66 36,-19 57,-23 105,-20 111,7 175,58 182,147 5,56 -23,107 -67,124 -37,14 -37,18 -1,39 41,23 59,87 40,143 -25,72 -134,105 -232,71 z"
       id="path18"
       inkscape:connector-curvature="0" />
    <path
       d="m 4607,4656 c -53,-20 -67,-34 -67,-72 0,-39 4,-40 53,-19 76,32 137,11 137,-48 0,-39 -42,-67 -101,-67 h -49 v -40 -40 h 44 c 108,0 161,-66 101,-125 -31,-32 -94,-33 -150,-5 -22,11 -41,20 -42,20 -2,0 -3,-17 -3,-38 0,-44 17,-63 69,-81 66,-22 159,-8 212,31 31,23 59,83 59,126 0,39 -36,92 -70,105 -35,13 -38,23 -11,32 51,16 73,122 37,177 -34,52 -138,73 -219,44 z"
       id="path20"
       inkscape:connector-curvature="0" />
    <path
       d="m 4205,4617 c -59,-42 -74,-68 -61,-103 5,-12 14,-10 56,11 l 50,25 v -164 -165 l -52,-3 -53,-3 v -35 -35 l 153,-3 152,-3 v 41 40 h -50 -50 v 220 220 h -42 c -34,-1 -56,-10 -103,-43 z"
       id="path22"
       inkscape:connector-curvature="0" />
    <path
       d="m 363,3674 c -56,-40 -63,-49 -63,-80 0,-41 8,-42 66,-8 l 44,26 -2,-168 -3,-169 -52,-3 -53,-3 v -35 -34 h 155 155 v 34 c 0,34 -1,35 -47,38 l -48,3 -3,223 -2,222 h -43 c -34,-1 -54,-9 -104,-46 z"
       id="path24"
       inkscape:connector-curvature="0" />
    <path
       d="m 827,3683 c -13,-21 -54,-93 -91,-160 -61,-109 -67,-126 -64,-170 l 3,-48 108,-3 107,-3 v -49 -50 h 45 45 v 49 c 0,47 2,50 28,53 24,3 27,8 30,45 3,39 1,42 -25,45 l -28,3 -5,160 -5,160 -62,3 -62,3 z m 63,-178 v -115 h -71 -71 l 43,78 c 24,42 52,94 63,114 12,21 24,38 29,38 4,0 7,-52 7,-115 z"
       id="path26"
       inkscape:connector-curvature="0" />
    <path
       d="m 1566,3730 c -128,-41 -156,-260 -40,-315 37,-17 116,-17 157,0 14,6 17,2 17,-21 0,-40 -33,-90 -71,-110 -31,-16 -46,-15 -126,2 -31,6 -33,5 -33,-24 0,-41 19,-53 93,-59 50,-4 73,-1 114,17 90,38 127,118 127,275 0,87 -3,107 -24,150 -14,27 -37,58 -52,69 -31,22 -116,31 -162,16 z m 103,-89 c 22,-22 34,-72 29,-117 -2,-24 -9,-31 -39,-38 -59,-15 -87,-2 -99,45 -25,93 50,169 109,110 z"
       id="path28"
       inkscape:connector-curvature="0" />
    <path
       d="m 2529,3740 c -48,-14 -78,-41 -95,-86 -22,-58 -8,-112 38,-148 l 32,-25 -43,-38 c -38,-34 -44,-44 -48,-88 -5,-65 11,-94 67,-122 76,-39 193,-27 252,25 23,22 31,39 35,76 7,59 -12,100 -62,135 l -34,23 30,25 c 58,49 71,99 42,160 -28,59 -129,89 -214,63 z m 105,-334 c 20,-18 36,-43 36,-55 0,-33 -43,-71 -80,-71 -34,0 -80,38 -80,65 0,34 48,94 77,95 6,0 28,-15 47,-34 z"
       id="path30"
       inkscape:connector-curvature="0" />
    <path
       d="m 3472,3725 c -61,-19 -72,-31 -72,-81 0,-24 2,-44 5,-44 3,0 23,9 45,20 22,11 53,20 70,20 36,0 70,-31 70,-62 -1,-38 -34,-100 -86,-158 -112,-125 -115,-130 -112,-168 l 3,-37 168,-3 167,-2 v 40 40 h -105 c -58,0 -105,3 -105,6 0,3 34,42 75,86 87,94 115,146 115,212 0,62 -24,101 -75,126 -47,23 -101,25 -163,5 z"
       id="path32"
       inkscape:connector-curvature="0" />
    <path
       d="m 4447,3685 c -61,-42 -67,-48 -67,-80 0,-42 9,-43 67,-9 l 43,25 -2,-168 -3,-168 -52,-3 -53,-3 v -35 -34 h 155 155 v 34 c 0,34 -1,35 -47,38 l -48,3 -3,223 -2,222 h -38 c -28,0 -55,-12 -105,-45 z"
       id="path34"
       inkscape:connector-curvature="0" />
    <path
       d="m 628,2758 c -9,-7 -52,-79 -97,-159 -72,-130 -81,-151 -81,-197 v -52 h 110 110 v -50 -50 h 45 45 v 50 c 0,49 1,50 31,50 29,0 30,1 27,43 -3,38 -6,42 -30,45 l -28,3 v 159 c 0,135 -2,159 -16,164 -27,10 -100,6 -116,-6 z m 39,-315 c -3,-2 -34,-3 -71,-1 l -66,3 51,90 c 90,159 84,157 87,26 1,-62 1,-116 -1,-118 z"
       id="path36"
       inkscape:connector-curvature="0" />
    <path
       d="m 1545,2783 c -39,-11 -78,-47 -99,-92 -18,-39 -21,-65 -21,-171 0,-107 3,-132 22,-172 30,-65 70,-88 152,-88 85,0 121,23 157,98 24,51 27,69 28,162 0,125 -14,179 -57,227 -30,32 -38,35 -97,38 -36,2 -74,1 -85,-2 z m 104,-94 c 25,-27 35,-102 29,-215 -4,-71 -8,-88 -28,-109 -37,-39 -81,-32 -107,18 -20,39 -23,215 -4,269 20,60 73,77 110,37 z"
       id="path38"
       inkscape:connector-curvature="0" />
    <path
       d="m 2400,2740 v -39 l 115,-3 114,-3 -35,-80 c -20,-44 -61,-135 -91,-202 -30,-68 -53,-130 -49,-138 6,-16 71,-21 93,-7 13,8 165,354 188,429 8,23 11,51 8,62 -5,20 -12,21 -174,21 h -169 z"
       id="path40"
       inkscape:connector-curvature="0" />
    <path
       d="m 3503,2729 c -57,-37 -63,-45 -63,-75 0,-40 17,-44 58,-16 15,10 33,22 40,26 9,6 12,-30 12,-163 v -170 l -52,-3 c -51,-3 -53,-4 -53,-33 v -30 l 153,-3 152,-3 v 36 c 0,35 0,35 -45,35 h -45 l -2,218 -3,217 -45,3 c -38,2 -54,-4 -107,-39 z"
       id="path42"
       inkscape:connector-curvature="0" />
    <path
       d="m 4642,2772 c -74,-22 -116,-119 -115,-267 1,-114 15,-167 58,-213 33,-37 34,-37 113,-37 96,0 124,15 162,91 23,44 25,61 25,174 0,113 -2,130 -25,175 -17,34 -36,55 -60,67 -35,18 -113,22 -158,10 z m 108,-90 c 50,-40 50,-294 -1,-334 -43,-35 -93,-17 -109,40 -13,49 -13,213 1,249 23,62 66,80 109,45 z"
       id="path44"
       inkscape:connector-curvature="0" />
    <path
       d="m 4213,2729 c -57,-37 -63,-45 -63,-75 0,-41 10,-42 67,-9 l 43,26 v -171 -170 h -55 -55 v -35 -35 h 155 155 v 34 c 0,34 -1,35 -47,38 l -48,3 -3,218 -2,217 h -43 c -32,0 -56,-10 -104,-41 z"
       id="path46"
       inkscape:connector-curvature="0" />
    <path
       d="m 777,1794 c -52,-16 -72,-45 -61,-90 7,-29 5,-29 54,-4 49,25 81,25 111,1 28,-22 30,-72 5,-120 -9,-17 -53,-71 -96,-119 -77,-84 -80,-89 -78,-132 l 3,-45 162,-3 162,-2 7,24 c 3,14 3,34 -1,45 -6,20 -14,21 -112,21 H 827 l 78,81 c 95,100 130,169 121,238 -3,25 -14,57 -24,71 -36,48 -132,62 -225,34 z"
       id="path48"
       inkscape:connector-curvature="0" />
    <path
       d="m 385,1760 c -61,-40 -76,-61 -67,-92 6,-24 17,-23 69,7 l 43,26 v -171 -170 h -56 -55 l 3,-37 3,-38 h 150 150 l 3,38 3,37 h -50 -51 v 220 220 h -42 c -33,0 -57,-9 -103,-40 z"
       id="path50"
       inkscape:connector-curvature="0" />
    <path
       d="m 1554,1791 c -87,-39 -130,-148 -122,-301 7,-121 32,-174 94,-202 87,-38 188,-8 232,70 25,45 30,141 9,181 -31,61 -127,88 -201,57 l -38,-16 7,37 c 20,108 80,141 193,107 22,-6 23,-4 20,32 -2,31 -8,40 -28,45 -48,13 -125,9 -166,-10 z m 108,-278 c 26,-24 25,-102 -3,-137 -16,-21 -29,-26 -52,-24 -40,4 -65,41 -69,102 -3,45 0,51 22,63 35,18 80,16 102,-4 z"
       id="path52"
       inkscape:connector-curvature="0" />
    <path
       d="m 2410,1770 v -40 h 110 c 87,0 110,-3 110,-14 0,-8 -13,-42 -29,-77 -89,-195 -141,-324 -137,-336 4,-10 19,-13 53,-11 l 48,3 92,215 c 67,156 92,227 93,258 v 42 h -170 -170 z"
       id="path54"
       inkscape:connector-curvature="0" />
    <path
       d="m 3495,1797 c -37,-18 -70,-53 -85,-91 -36,-96 -30,-282 12,-357 30,-53 92,-83 159,-77 121,12 178,120 166,313 -9,161 -48,214 -160,221 -40,3 -73,-1 -92,-9 z m 100,-73 c 35,-14 49,-64 49,-179 -1,-60 -6,-122 -12,-138 -26,-62 -107,-60 -129,3 -17,50 -16,223 1,264 19,47 52,65 91,50 z"
       id="path56"
       inkscape:connector-curvature="0" />
    <path
       d="m 4463,1809 c -48,-14 -98,-70 -119,-131 -13,-38 -18,-82 -17,-155 0,-87 4,-109 24,-150 30,-58 64,-84 122,-90 93,-11 168,37 193,122 38,131 -29,225 -150,212 -28,-3 -59,-8 -68,-12 -15,-6 -18,-2 -18,25 0,69 63,127 129,117 20,-3 46,-9 59,-13 20,-6 22,-3 22,30 0,30 -5,38 -26,46 -31,12 -108,11 -151,-1 z m 91,-285 c 24,-23 29,-56 16,-102 -11,-44 -33,-62 -73,-62 -38,0 -60,33 -65,100 -4,55 -3,60 19,69 37,15 86,13 103,-5 z"
       id="path58"
       inkscape:connector-curvature="0" />
    <path
       d="M 628,823 C 604,794 468,550 459,516 c -5,-17 -7,-43 -3,-58 l 5,-27 107,-3 107,-3 3,-53 3,-53 42,3 42,3 5,50 c 5,46 7,50 33,53 24,3 27,7 27,42 0,35 -3,39 -27,42 l -28,3 -5,160 -5,160 -61,3 c -48,2 -63,-1 -76,-15 z m 50,-195 -3,-113 -59,-3 c -32,-2 -62,1 -67,5 -9,9 110,223 123,223 5,0 7,-51 6,-112 z"
       id="path60"
       inkscape:connector-curvature="0" />
    <path
       d="m 1495,838 c -3,-13 -4,-75 -3,-138 l 3,-115 84,-5 c 72,-5 86,-9 102,-29 24,-29 24,-72 1,-101 -25,-30 -103,-38 -157,-16 -42,18 -55,11 -55,-31 0,-29 23,-50 68,-63 113,-31 233,17 263,107 14,44 7,114 -16,149 -23,36 -90,64 -152,64 h -53 v 55 54 l 98,3 97,3 v 40 40 l -137,3 c -136,3 -138,2 -143,-20 z"
       id="path62"
       inkscape:connector-curvature="0" />
    <path
       d="m 2530,848 c -114,-58 -124,-250 -16,-299 50,-22 95,-24 141,-5 35,15 35,15 35,-10 0,-42 -29,-90 -64,-109 -33,-18 -84,-17 -143,1 -21,6 -23,3 -23,-29 0,-51 20,-62 111,-62 70,0 81,3 120,30 26,18 53,50 68,80 24,46 26,60 26,180 0,143 -10,176 -67,218 -43,32 -131,34 -188,5 z m 120,-68 c 22,-12 40,-61 40,-110 0,-30 -5,-39 -25,-48 -35,-16 -77,-15 -101,2 -27,20 -27,115 0,145 20,22 56,27 86,11 z"
       id="path64"
       inkscape:connector-curvature="0" />
    <path
       d="m 3513,849 c -35,-10 -80,-58 -89,-95 -11,-43 5,-92 42,-128 l 35,-34 -31,-22 c -40,-28 -60,-69 -60,-122 0,-54 21,-85 74,-109 76,-34 184,-21 239,29 63,59 57,145 -15,206 l -40,34 27,18 c 56,37 73,128 33,179 -39,50 -130,69 -215,44 z m 114,-326 c 17,-16 34,-38 38,-50 9,-33 -34,-73 -77,-73 -79,0 -107,74 -47,124 38,33 47,32 86,-1 z"
       id="path66"
       inkscape:connector-curvature="0" />
    <path
       d="m 4460,843 c -70,-25 -80,-35 -80,-74 0,-44 3,-45 53,-24 73,30 137,9 137,-44 0,-41 -31,-63 -97,-70 l -58,-6 v -35 -35 l 64,-6 c 54,-5 69,-11 89,-34 25,-30 24,-66 -3,-94 -23,-24 -97,-25 -148,-3 l -47,21 -6,-24 c -16,-63 40,-100 151,-100 105,0 165,43 185,131 12,50 -14,113 -56,134 -16,8 -31,15 -32,16 -2,2 11,16 29,32 27,24 33,37 37,83 3,45 0,59 -19,83 -12,16 -37,35 -55,42 -33,14 -115,18 -144,7 z"
       id="path68"
       inkscape:connector-curvature="0" />
  </g>
  <ellipse
     style="fill:#fffffe;fill-opacity:1"
     id="path8132"
     cx="258.82944"
     cy="139.66313"
     rx="4.9163136"
     ry="5.2055082" />
  <ellipse
     style="fill:#fffffe;fill-opacity:1"
     id="path8148"
     cx="358.8909"
     cy="427.70126"
     rx="4.337924"
     ry="5.2055082" />
  <rect
     style="fill:#ffffff;stroke-width:0.75"
     id="rect62"
     width="69.015938"
     height="75.150696"
     x="33.741127"
     y="22.256302" />
  <rect
     style="fill:#ffffff;stroke-width:0.75"
     id="rect64"
     width="80.5186"
     height="66.715408"
     x="123.46185"
     y="27.624214" />
  <rect
     style="fill:#ffffff;stroke-width:0.75"
     id="rect66"
     width="53.679066"
     height="70.549629"
     x="228.51944"
     y="18.422089" />
  <rect
     style="fill:#ffffff;stroke-width:0.75"
     id="rect68"
     width="63.648037"
     height="66.715408"
     x="315.17279"
     y="25.323685" />
  <rect
     style="fill:#ffffff;stroke-width:0.75"
     id="rect70"
     width="81.897255"
     height="79.171608"
     x="407.60275"
     y="18.328392" />
  <rect
     style="fill:#ffffff;stroke-width:0.75"
     id="rect72"
     width="81.285446"
     height="67.482254"
     x="26.072691"
     y="118.11177" />
  <rect
     style="fill:#ffffff;stroke-width:0.75"
     id="rect74"
     width="54.445911"
     height="61.347507"
     x="130.36345"
     y="121.17915" />
  <rect
     style="fill:#ffffff;stroke-width:0.75"
     id="rect76"
     width="63.648037"
     height="62.881191"
     x="221.61786"
     y="118.87862" />
  <rect
     style="fill:#ffffff;stroke-width:0.75"
     id="rect78"
     width="61.347507"
     height="68.2491"
     x="319.00702"
     y="118.87862" />
  <rect
     style="fill:#ffffff;stroke-width:0.75"
     id="rect80"
     width="56.746445"
     height="59.813816"
     x="419.46353"
     y="121.946" />
  <rect
     style="fill:#ffffff;stroke-width:0.75"
     id="rect82"
     width="59.813816"
     height="72.083321"
     x="322.84125"
     y="212.43356" />
  <rect
     style="fill:#ffffff;stroke-width:0.75"
     id="rect84"
     width="59.046974"
     height="70.549629"
     x="225.45209"
     y="210.13303" />
  <rect
     style="fill:#ffffff;stroke-width:0.75"
     id="rect86"
     width="64.414879"
     height="62.881191"
     x="129.5966"
     y="219.33514" />
  <rect
     style="fill:#ffffff;stroke-width:0.75"
     id="rect88"
     width="65.181725"
     height="65.181725"
     x="31.440596"
     y="213.96725" />
  <rect
     style="fill:#ffffff;stroke-width:0.75"
     id="rect90"
     width="83.585976"
     height="65.94857"
     x="405.66037"
     y="211.66672" />
  <rect
     style="fill:#ffffff;stroke-width:0.75"
     id="rect92"
     width="63.648037"
     height="64.414879"
     x="321.30756"
     y="312.89011" />
  <rect
     style="fill:#ffffff;stroke-width:0.75"
     id="rect94"
     width="62.114346"
     height="72.083321"
     x="414.09567"
     y="306.75537" />
  <rect
     style="fill:#ffffff;stroke-width:0.75"
     id="rect96"
     width="61.347507"
     height="72.083321"
     x="223.9184"
     y="309.05591" />
  <rect
     style="fill:#ffffff;stroke-width:0.75"
     id="rect98"
     width="68.2491"
     height="61.347507"
     x="121.16132"
     y="315.95749" />
  <rect
     style="fill:#ffffff;stroke-width:0.75"
     id="rect100"
     width="86.891815"
     height="82.139206"
     x="22"
     y="302" />
  <rect
     style="fill:#ffffff;stroke-width:0.75"
     id="rect102"
     width="62.881191"
     height="64.414879"
     x="31.440596"
     y="410.27927" />
  <rect
     style="fill:#ffffff;stroke-width:0.75"
     id="rect104"
     width="55.979599"
     height="63.648037"
     x="131.13029"
     y="404.91135" />
  <rect
     style="fill:#ffffff;stroke-width:0.75"
     id="rect106"
     width="55.212753"
     height="77.451225"
     x="227.75259"
     y="399.54343" />
  <rect
     style="fill:#ffffff;stroke-width:0.75"
     id="rect108"
     width="59.046974"
     height="67.482254"
     x="322.0744"
     y="403.37766" />
  <rect
     style="fill:#ffffff;stroke-width:0.75"
     id="rect110"
     width="67.482254"
     height="66.715408"
     x="418.69669"
     y="405.67819" />
  <ellipse
     style="fill:#ff0000;stroke-width:0.89770001"
     id="path112"
     cx="66.60318"
     cy="441.23535"
     rx="38.218601"
     ry="37.958771" />
  <path
     sodipodi:type="star"
     style="fill:#ffffff;fill-opacity:1;stroke:#000000;stroke-width:5.25;stroke-miterlimit:4;stroke-dasharray:none;stroke-dashoffset:0;stroke-opacity:1"
     id="path4551"
     sodipodi:sides="5"
     sodipodi:cx="68.000008"
     sodipodi:cy="348.5"
     sodipodi:r1="42.299709"
     sodipodi:r2="34.221188"
     sodipodi:arg1="0.88610561"
     sodipodi:arg2="1.5144241"
     inkscape:flatsided="true"
     inkscape:rounded="0"
     inkscape:randomized="0"
     d="m 94.751759,381.26598 -49.6473,2.80169 -18.006431,-46.35162 38.518715,-31.44857 41.812307,26.91534 z"
     inkscape:transform-center-x="0.73646912"
     inkscape:transform-center-y="-3.3324217" />
  <path
     sodipodi:type="star"
     style="fill:#ffffff;fill-opacity:1;stroke:#000000;stroke-width:5.25;stroke-miterlimit:4;stroke-dasharray:none;stroke-dashoffset:0;stroke-opacity:1"
     id="path4551-0"
     sodipodi:sides="5"
     sodipodi:cx="257.1821"
     sodipodi:cy="444.22192"
     sodipodi:r1="42.299709"
     sodipodi:r2="34.221188"
     sodipodi:arg1="0.88610561"
     sodipodi:arg2="1.5144241"
     inkscape:flatsided="true"
     inkscape:rounded="0"
     inkscape:randomized="0"
     d="m 283.93385,476.9879 -49.6473,2.8017 -18.00643,-46.35162 38.51871,-31.44857 41.81231,26.91533 z"
     inkscape:transform-center-x="0.73646912"
     inkscape:transform-center-y="-3.3324217" />
  <path
     sodipodi:type="star"
     style="fill:#ffffff;fill-opacity:1;stroke:#000000;stroke-width:5.25;stroke-miterlimit:4;stroke-dasharray:none;stroke-dashoffset:0;stroke-opacity:1"
     id="path4551-0-3"
     sodipodi:sides="5"
     sodipodi:cx="162.75565"
     sodipodi:cy="155.5047"
     sodipodi:r1="42.299709"
     sodipodi:r2="34.221188"
     sodipodi:arg1="0.88610561"
     sodipodi:arg2="1.5144241"
     inkscape:flatsided="true"
     inkscape:rounded="0"
     inkscape:randomized="0"
     d="m 189.5074,188.27068 -49.6473,2.80169 -18.00643,-46.35162 38.51871,-31.44857 41.81231,26.91534 z"
     inkscape:transform-center-x="0.73646912"
     inkscape:transform-center-y="-3.3324217" />
  <path
     style="fill:#008000;fill-opacity:1;stroke:#000000;stroke-width:1;stroke-miterlimit:4;stroke-dasharray:none;stroke-dashoffset:0;stroke-opacity:1"
     d="m 62.419368,506.92317 c -0.289383,-0.74912 -5.238454,-13.48418 -10.997937,-28.30015 -8.761026,-22.53727 -10.243304,-27.14897 -9.073202,-28.22875 2.245376,-2.07206 44.682098,-36.47142 45.240498,-36.67211 0.462965,-0.16639 44.640143,27.98531 49.054403,31.25968 1.82058,1.35046 1.62183,2.46187 -4.90247,27.4148 -3.73999,14.30401 -7.25101,27.42944 -7.80226,29.16762 l -1.00228,3.16034 -24.257777,1.20677 c -13.341776,0.66372 -26.839661,1.46486 -29.995301,1.7803 -4.251932,0.42503 -5.87376,0.22086 -6.263674,-0.7885 z"
     id="path4607"
     inkscape:connector-curvature="0"
     transform="scale(0.74999998)" />
  <path
     style="fill:#00ff00;fill-opacity:1;stroke:#000000;stroke-width:1;stroke-miterlimit:4;stroke-dasharray:none;stroke-dashoffset:0;stroke-opacity:1"
     d="m 178.0861,222.33579 -10.84981,-28.07372 22.89289,-18.67962 c 12.5911,-10.2738 23.28148,-18.81354 23.75641,-18.9772 0.63156,-0.21764 30.7844,18.69162 50.92109,31.93332 0.21652,0.14238 -15.02064,58.16709 -15.35617,58.47789 -0.25574,0.23689 -54.72602,3.44892 -57.95845,3.41772 -2.39669,-0.0231 -3.23301,-1.77602 -13.40596,-28.09839 z"
     id="path4609"
     inkscape:connector-curvature="0"
     transform="scale(0.74999998)" />
  <path
     style="fill:#00ff00;fill-opacity:1;stroke:#000000;stroke-width:1;stroke-miterlimit:4;stroke-dasharray:none;stroke-dashoffset:0;stroke-opacity:1"
     d="m 314.22583,633.47574 c -0.45116,-1.18372 -5.24551,-13.55332 -10.65411,-27.48801 -5.4086,-13.93468 -9.83382,-25.76745 -9.83382,-26.29504 0,-0.5276 10.41752,-9.45867 23.15005,-19.84683 l 23.15005,-18.88757 5.7344,3.66612 c 16.1805,10.34453 45.09684,29.11851 45.08141,29.26918 -0.19917,1.94545 -15.28003,57.22032 -15.73606,57.67635 -0.55903,0.55903 -11.21774,1.29579 -52.5771,3.63427 -6.87893,0.38894 -7.5619,0.24696 -8.31482,-1.72847 z"
     id="path4611"
     inkscape:connector-curvature="0"
     transform="scale(0.74999998)" />
  <rect
     style="fill:#0000ff;fill-opacity:1;stroke:#000000;stroke-width:5.24999984;stroke-miterlimit:4;stroke-dasharray:none;stroke-dashoffset:0;stroke-opacity:1"
     id="rect4613"
     width="63.648045"
     height="66.715408"
     x="322.67279"
     y="25.323687" />
  <rect
     style="fill:#0000ff;fill-opacity:1;stroke:#000000;stroke-width:5.25;stroke-miterlimit:4;stroke-dasharray:none;stroke-dashoffset:0;stroke-opacity:1"
     id="rect4613-0"
     width="63.648048"
     height="66.715408"
     x="417.19669"
     y="408.67822" />
  <rect
     style="fill:#000080;fill-opacity:1;stroke:#000000;stroke-width:5.25;stroke-miterlimit:4;stroke-dasharray:none;stroke-dashoffset:0;stroke-opacity:1"
     id="rect4613-0-5"
     width="63.648048"
     height="66.715408"
     x="417.51276"
     y="217.25578" />
</svg>
