<?xml version="1.0" encoding="UTF-8" standalone="no"?>
<!-- Created with Inkscape (http://www.inkscape.org/) -->

<svg
   xmlns:dc="http://purl.org/dc/elements/1.1/"
   xmlns:cc="http://creativecommons.org/ns#"
   xmlns:rdf="http://www.w3.org/1999/02/22-rdf-syntax-ns#"
   xmlns:svg="http://www.w3.org/2000/svg"
   xmlns="http://www.w3.org/2000/svg"
   xmlns:sodipodi="http://sodipodi.sourceforge.net/DTD/sodipodi-0.dtd"
   xmlns:inkscape="http://www.inkscape.org/namespaces/inkscape"
   id="svg2"
   version="1.1"
   inkscape:version="0.92.1 r15371"
   width="560"
   height="400"
   viewBox="0 0 525 375.00001"
   sodipodi:docname="search_policy_open_loop_EVADE.svg">
  <metadata
     id="metadata8">
    <rdf:RDF>
      <cc:Work
         rdf:about="">
        <dc:format>image/svg+xml</dc:format>
        <dc:type
           rdf:resource="http://purl.org/dc/dcmitype/StillImage" />
        <dc:title></dc:title>
      </cc:Work>
    </rdf:RDF>
  </metadata>
  <defs
     id="defs6">
    <marker
       inkscape:stockid="Arrow2Send"
       orient="auto"
       refY="0"
       refX="0"
       id="Arrow2Send"
       style="overflow:visible"
       inkscape:isstock="true">
      <path
         id="path8166"
         style="fill:#000000;fill-opacity:1;fill-rule:evenodd;stroke:#000000;stroke-width:0.625;stroke-linejoin:round;stroke-opacity:1"
         d="M 8.7185878,4.0337352 -2.2072895,0.01601326 8.7185884,-4.0017078 c -1.7454984,2.3720609 -1.7354408,5.6174519 -6e-7,8.035443 z"
         transform="matrix(-0.3,0,0,-0.3,0.69,0)"
         inkscape:connector-curvature="0" />
    </marker>
    <marker
       inkscape:stockid="Arrow1Mend"
       orient="auto"
       refY="0"
       refX="0"
       id="Arrow1Mend"
       style="overflow:visible"
       inkscape:isstock="true">
      <path
         id="path8142"
         d="M 0,0 5,-5 -12.5,0 5,5 Z"
         style="fill:#000000;fill-opacity:1;fill-rule:evenodd;stroke:#000000;stroke-width:1.00000003pt;stroke-opacity:1"
         transform="matrix(-0.4,0,0,-0.4,-4,0)"
         inkscape:connector-curvature="0" />
    </marker>
  </defs>
  <sodipodi:namedview
     pagecolor="#ffffff"
     bordercolor="#666666"
     borderopacity="1"
     objecttolerance="10"
     gridtolerance="10"
     guidetolerance="10"
     inkscape:pageopacity="0"
     inkscape:pageshadow="2"
     inkscape:window-width="1920"
     inkscape:window-height="986"
     id="namedview4"
     showgrid="true"
     inkscape:zoom="1.2586667"
     inkscape:cx="59.264689"
     inkscape:cy="199.02541"
     inkscape:window-x="-11"
     inkscape:window-y="-11"
     inkscape:window-maximized="1"
     inkscape:current-layer="g8985"
     fit-margin-top="0"
     fit-margin-left="0"
     fit-margin-right="0"
     fit-margin-bottom="0">
    <inkscape:grid
       type="xygrid"
       id="grid8505"
       originx="-148.50001"
       originy="-518.49991"
       spacingx="1"
       spacingy="1" />
  </sodipodi:namedview>
  <g
     id="g8985"
     transform="translate(-148.50001,-106.50007)">
    <path
       style="fill:#ffffff;fill-opacity:1;stroke:#000000;stroke-width:3.47034121;stroke-linecap:round;stroke-linejoin:round;stroke-miterlimit:4;stroke-dasharray:none;stroke-dashoffset:0;stroke-opacity:1"
       id="path8355"
       sodipodi:type="arc"
       sodipodi:cx="186.41103"
       sodipodi:cy="451.58896"
       sodipodi:rx="8.6758595"
       sodipodi:ry="8.675848"
       sodipodi:start="0"
       sodipodi:end="6.2717185"
       sodipodi:open="true"
       d="m 195.08689,451.58896 a 8.6758595,8.675848 0 0 1 -8.65099,8.67581 8.6758595,8.675848 0 0 1 -8.70059,-8.62607 8.6758595,8.675848 0 0 1 8.6011,-8.72527 8.6758595,8.675848 0 0 1 8.74991,8.57605" />
    <path
       style="fill:#ffffff;fill-opacity:1;stroke:#000000;stroke-width:3.47034121;stroke-linecap:round;stroke-linejoin:round;stroke-miterlimit:4;stroke-dasharray:none;stroke-dashoffset:0;stroke-opacity:1"
       id="path8355-4"
       sodipodi:type="arc"
       sodipodi:cx="216.41103"
       sodipodi:cy="451.58896"
       sodipodi:rx="8.6758595"
       sodipodi:ry="8.675848"
       sodipodi:start="0"
       sodipodi:end="6.2717185"
       sodipodi:open="true"
       d="m 225.08689,451.58896 a 8.6758595,8.675848 0 0 1 -8.65099,8.67581 8.6758595,8.675848 0 0 1 -8.70059,-8.62607 8.6758595,8.675848 0 0 1 8.6011,-8.72527 8.6758595,8.675848 0 0 1 8.74991,8.57605" />
    <path
       style="fill:#ffffff;fill-opacity:1;stroke:#000000;stroke-width:3.47034121;stroke-linecap:round;stroke-linejoin:round;stroke-miterlimit:4;stroke-dasharray:none;stroke-dashoffset:0;stroke-opacity:1"
       id="path8355-4-2"
       sodipodi:type="arc"
       sodipodi:cx="246.41103"
       sodipodi:cy="451.58896"
       sodipodi:rx="8.6758595"
       sodipodi:ry="8.675848"
       sodipodi:start="0"
       sodipodi:end="6.2717185"
       sodipodi:open="true"
       d="m 255.08689,451.58896 a 8.6758595,8.675848 0 0 1 -8.65099,8.67581 8.6758595,8.675848 0 0 1 -8.70059,-8.62607 8.6758595,8.675848 0 0 1 8.6011,-8.72527 8.6758595,8.675848 0 0 1 8.74991,8.57605" />
    <path
       style="fill:#ffffff;fill-opacity:1;stroke:#000000;stroke-width:3.47034121;stroke-linecap:round;stroke-linejoin:round;stroke-miterlimit:4;stroke-dasharray:none;stroke-dashoffset:0;stroke-opacity:1"
       id="path8355-4-2-3"
       sodipodi:type="arc"
       sodipodi:cx="276.41101"
       sodipodi:cy="451.58896"
       sodipodi:rx="8.6758595"
       sodipodi:ry="8.675848"
       sodipodi:start="0"
       sodipodi:end="6.2717185"
       sodipodi:open="true"
       d="m 285.08687,451.58896 a 8.6758595,8.675848 0 0 1 -8.65099,8.67581 8.6758595,8.675848 0 0 1 -8.70059,-8.62607 8.6758595,8.675848 0 0 1 8.60111,-8.72527 8.6758595,8.675848 0 0 1 8.7499,8.57605" />
    <path
       style="fill:#ffffff;fill-opacity:1;stroke:#000000;stroke-width:3.47034121;stroke-linecap:round;stroke-linejoin:round;stroke-miterlimit:4;stroke-dasharray:none;stroke-dashoffset:0;stroke-opacity:1"
       id="path8355-4-2-3-7"
       sodipodi:type="arc"
       sodipodi:cx="306.41101"
       sodipodi:cy="451.58896"
       sodipodi:rx="8.6758595"
       sodipodi:ry="8.675848"
       sodipodi:start="0"
       sodipodi:end="6.2717185"
       sodipodi:open="true"
       d="m 315.08687,451.58896 a 8.6758595,8.675848 0 0 1 -8.65099,8.67581 8.6758595,8.675848 0 0 1 -8.70059,-8.62607 8.6758595,8.675848 0 0 1 8.60111,-8.72527 8.6758595,8.675848 0 0 1 8.7499,8.57605" />
    <path
       style="fill:#ffffff;fill-opacity:1;stroke:#000000;stroke-width:3.47034121;stroke-linecap:round;stroke-linejoin:round;stroke-miterlimit:4;stroke-dasharray:none;stroke-dashoffset:0;stroke-opacity:1"
       id="path8355-4-2-3-7-1"
       sodipodi:type="arc"
       sodipodi:cx="336.41101"
       sodipodi:cy="451.58896"
       sodipodi:rx="8.6758595"
       sodipodi:ry="8.675848"
       sodipodi:start="0"
       sodipodi:end="6.2717185"
       sodipodi:open="true"
       d="m 345.08687,451.58896 a 8.6758595,8.675848 0 0 1 -8.65099,8.67581 8.6758595,8.675848 0 0 1 -8.70059,-8.62607 8.6758595,8.675848 0 0 1 8.60111,-8.72527 8.6758595,8.675848 0 0 1 8.7499,8.57605" />
    <path
       style="fill:#ffffff;fill-opacity:1;stroke:#000000;stroke-width:3.47034121;stroke-linecap:round;stroke-linejoin:round;stroke-miterlimit:4;stroke-dasharray:none;stroke-dashoffset:0;stroke-opacity:1"
       id="path8355-4-2-3-7-1-4"
       sodipodi:type="arc"
       sodipodi:cx="366.41101"
       sodipodi:cy="451.58896"
       sodipodi:rx="8.6758595"
       sodipodi:ry="8.675848"
       sodipodi:start="0"
       sodipodi:end="6.2717185"
       sodipodi:open="true"
       d="m 375.08687,451.58896 a 8.6758595,8.675848 0 0 1 -8.65099,8.67581 8.6758595,8.675848 0 0 1 -8.70059,-8.62607 8.6758595,8.675848 0 0 1 8.60111,-8.72527 8.6758595,8.675848 0 0 1 8.7499,8.57605" />
    <path
       style="fill:#ffffff;fill-opacity:1;stroke:#000000;stroke-width:3.47034121;stroke-linecap:round;stroke-linejoin:round;stroke-miterlimit:4;stroke-dasharray:none;stroke-dashoffset:0;stroke-opacity:1"
       id="path8355-4-2-3-7-1-4-8"
       sodipodi:type="arc"
       sodipodi:cx="396.41101"
       sodipodi:cy="451.58896"
       sodipodi:rx="8.6758595"
       sodipodi:ry="8.675848"
       sodipodi:start="0"
       sodipodi:end="6.2717185"
       sodipodi:open="true"
       d="m 405.08687,451.58896 a 8.6758595,8.675848 0 0 1 -8.65099,8.67581 8.6758595,8.675848 0 0 1 -8.70059,-8.62607 8.6758595,8.675848 0 0 1 8.60111,-8.72527 8.6758595,8.675848 0 0 1 8.7499,8.57605" />
    <path
       style="fill:#ffffff;fill-opacity:1;stroke:#000000;stroke-width:3.47034121;stroke-linecap:round;stroke-linejoin:round;stroke-miterlimit:4;stroke-dasharray:none;stroke-dashoffset:0;stroke-opacity:1"
       id="path8355-4-2-3-7-1-4-8-0-8-0-3-1"
       sodipodi:type="arc"
       sodipodi:cx="546.41101"
       sodipodi:cy="451.58896"
       sodipodi:rx="8.6758595"
       sodipodi:ry="8.675848"
       sodipodi:start="0"
       sodipodi:end="6.2717185"
       sodipodi:open="true"
       d="m 555.08687,451.58896 a 8.6758595,8.675848 0 0 1 -8.65099,8.67581 8.6758595,8.675848 0 0 1 -8.70059,-8.62607 8.6758595,8.675848 0 0 1 8.60111,-8.72527 8.6758595,8.675848 0 0 1 8.7499,8.57605" />
    <path
       style="fill:#ffffff;fill-opacity:1;stroke:#000000;stroke-width:3.47034121;stroke-linecap:round;stroke-linejoin:round;stroke-miterlimit:4;stroke-dasharray:none;stroke-dashoffset:0;stroke-opacity:1"
       id="path8355-4-2-3-7-1-4-8-0-8-0-3-1-8"
       sodipodi:type="arc"
       sodipodi:cx="576.41101"
       sodipodi:cy="451.58896"
       sodipodi:rx="8.6758595"
       sodipodi:ry="8.675848"
       sodipodi:start="0"
       sodipodi:end="6.2717185"
       sodipodi:open="true"
       d="m 585.08687,451.58896 a 8.6758595,8.675848 0 0 1 -8.65099,8.67581 8.6758595,8.675848 0 0 1 -8.70059,-8.62607 8.6758595,8.675848 0 0 1 8.60111,-8.72527 8.6758595,8.675848 0 0 1 8.7499,8.57605" />
    <path
       style="fill:#ffffff;fill-opacity:1;stroke:#000000;stroke-width:3.47034121;stroke-linecap:round;stroke-linejoin:round;stroke-miterlimit:4;stroke-dasharray:none;stroke-dashoffset:0;stroke-opacity:1"
       id="path8355-4-2-3-7-1-4-8-0-8-0-3-1-8-3"
       sodipodi:type="arc"
       sodipodi:cx="606.41101"
       sodipodi:cy="451.58896"
       sodipodi:rx="8.6758595"
       sodipodi:ry="8.675848"
       sodipodi:start="0"
       sodipodi:end="6.2717185"
       sodipodi:open="true"
       d="m 615.08687,451.58896 a 8.6758595,8.675848 0 0 1 -8.65099,8.67581 8.6758595,8.675848 0 0 1 -8.70059,-8.62607 8.6758595,8.675848 0 0 1 8.60111,-8.72527 8.6758595,8.675848 0 0 1 8.7499,8.57605" />
    <path
       style="fill:#ffffff;fill-opacity:1;stroke:#000000;stroke-width:3.47034121;stroke-linecap:round;stroke-linejoin:round;stroke-miterlimit:4;stroke-dasharray:none;stroke-dashoffset:0;stroke-opacity:1"
       id="path8355-4-2-3-7-1-4-8-0-8-0-3-1-8-3-9"
       sodipodi:type="arc"
       sodipodi:cx="636.41101"
       sodipodi:cy="451.58896"
       sodipodi:rx="8.6758595"
       sodipodi:ry="8.675848"
       sodipodi:start="0"
       sodipodi:end="6.2717185"
       sodipodi:open="true"
       d="m 645.08687,451.58896 a 8.6758595,8.675848 0 0 1 -8.65099,8.67581 8.6758595,8.675848 0 0 1 -8.70059,-8.62607 8.6758595,8.675848 0 0 1 8.60111,-8.72527 8.6758595,8.675848 0 0 1 8.7499,8.57605" />
    <path
       style="fill:#ffffff;fill-opacity:1;stroke:#000000;stroke-width:3.47034121;stroke-linecap:round;stroke-linejoin:round;stroke-miterlimit:4;stroke-dasharray:none;stroke-dashoffset:0;stroke-opacity:1"
       id="path8355-1"
       sodipodi:type="arc"
       sodipodi:cx="202.41103"
       sodipodi:cy="371.58896"
       sodipodi:rx="8.6758595"
       sodipodi:ry="8.675848"
       sodipodi:start="0"
       sodipodi:end="6.2717185"
       sodipodi:open="true"
       d="m 211.08689,371.58896 a 8.6758595,8.675848 0 0 1 -8.65099,8.67581 8.6758595,8.675848 0 0 1 -8.70059,-8.62607 8.6758595,8.675848 0 0 1 8.6011,-8.72527 8.6758595,8.675848 0 0 1 8.74991,8.57605" />
    <path
       style="fill:#ffffff;fill-opacity:1;stroke:#000000;stroke-width:3.47034121;stroke-linecap:round;stroke-linejoin:round;stroke-miterlimit:4;stroke-dasharray:none;stroke-dashoffset:0;stroke-opacity:1"
       id="path8355-1-0"
       sodipodi:type="arc"
       sodipodi:cx="262.41101"
       sodipodi:cy="371.58896"
       sodipodi:rx="8.6758595"
       sodipodi:ry="8.675848"
       sodipodi:start="0"
       sodipodi:end="6.2717185"
       sodipodi:open="true"
       d="m 271.08687,371.58896 a 8.6758595,8.675848 0 0 1 -8.65099,8.67581 8.6758595,8.675848 0 0 1 -8.70059,-8.62607 8.6758595,8.675848 0 0 1 8.60111,-8.72527 8.6758595,8.675848 0 0 1 8.7499,8.57605" />
    <path
       style="fill:#ffffff;fill-opacity:1;stroke:#000000;stroke-width:3.47034121;stroke-linecap:round;stroke-linejoin:round;stroke-miterlimit:4;stroke-dasharray:none;stroke-dashoffset:0;stroke-opacity:1"
       id="path8355-1-0-4"
       sodipodi:type="arc"
       sodipodi:cx="322.41101"
       sodipodi:cy="371.58896"
       sodipodi:rx="8.6758595"
       sodipodi:ry="8.675848"
       sodipodi:start="0"
       sodipodi:end="6.2717185"
       sodipodi:open="true"
       d="m 331.08687,371.58896 a 8.6758595,8.675848 0 0 1 -8.65099,8.67581 8.6758595,8.675848 0 0 1 -8.70059,-8.62607 8.6758595,8.675848 0 0 1 8.60111,-8.72527 8.6758595,8.675848 0 0 1 8.7499,8.57605" />
    <path
       style="fill:#ffffff;fill-opacity:1;stroke:#000000;stroke-width:3.47034121;stroke-linecap:round;stroke-linejoin:round;stroke-miterlimit:4;stroke-dasharray:none;stroke-dashoffset:0;stroke-opacity:1"
       id="path8355-1-0-4-1"
       sodipodi:type="arc"
       sodipodi:cx="380.41101"
       sodipodi:cy="371.58896"
       sodipodi:rx="8.6758595"
       sodipodi:ry="8.675848"
       sodipodi:start="0"
       sodipodi:end="6.2717185"
       sodipodi:open="true"
       d="m 389.08687,371.58896 a 8.6758595,8.675848 0 0 1 -8.65099,8.67581 8.6758595,8.675848 0 0 1 -8.70059,-8.62607 8.6758595,8.675848 0 0 1 8.60111,-8.72527 8.6758595,8.675848 0 0 1 8.7499,8.57605" />
    <path
       style="fill:#ffffff;fill-opacity:1;stroke:#000000;stroke-width:3.47034121;stroke-linecap:round;stroke-linejoin:round;stroke-miterlimit:4;stroke-dasharray:none;stroke-dashoffset:0;stroke-opacity:1"
       id="path8355-1-0-4-1-4-1-2"
       sodipodi:type="arc"
       sodipodi:cx="562.41101"
       sodipodi:cy="371.58896"
       sodipodi:rx="8.6758595"
       sodipodi:ry="8.675848"
       sodipodi:start="0"
       sodipodi:end="6.2717185"
       sodipodi:open="true"
       d="m 571.08687,371.58896 a 8.6758595,8.675848 0 0 1 -8.65099,8.67581 8.6758595,8.675848 0 0 1 -8.70059,-8.62607 8.6758595,8.675848 0 0 1 8.60111,-8.72527 8.6758595,8.675848 0 0 1 8.7499,8.57605" />
    <path
       style="fill:#ffffff;fill-opacity:1;stroke:#000000;stroke-width:3.47034121;stroke-linecap:round;stroke-linejoin:round;stroke-miterlimit:4;stroke-dasharray:none;stroke-dashoffset:0;stroke-opacity:1"
       id="path8355-1-0-4-1-4-1-2-6"
       sodipodi:type="arc"
       sodipodi:cx="620.41101"
       sodipodi:cy="371.58896"
       sodipodi:rx="8.6758595"
       sodipodi:ry="8.675848"
       sodipodi:start="0"
       sodipodi:end="6.2717185"
       sodipodi:open="true"
       d="m 629.08687,371.58896 a 8.6758595,8.675848 0 0 1 -8.65099,8.67581 8.6758595,8.675848 0 0 1 -8.70059,-8.62607 8.6758595,8.675848 0 0 1 8.60111,-8.72527 8.6758595,8.675848 0 0 1 8.7499,8.57605" />
    <path
       style="fill:#ffffff;fill-opacity:1;stroke:#000000;stroke-width:3.47034121;stroke-linecap:round;stroke-linejoin:round;stroke-miterlimit:4;stroke-dasharray:none;stroke-dashoffset:0;stroke-opacity:1"
       id="path8355-1-6"
       sodipodi:type="arc"
       sodipodi:cx="232.41103"
       sodipodi:cy="293.58896"
       sodipodi:rx="8.6758595"
       sodipodi:ry="8.675848"
       sodipodi:start="0"
       sodipodi:end="6.2717185"
       sodipodi:open="true"
       d="m 241.08689,293.58896 a 8.6758595,8.675848 0 0 1 -8.65099,8.67581 8.6758595,8.675848 0 0 1 -8.70059,-8.62607 8.6758595,8.675848 0 0 1 8.6011,-8.72527 8.6758595,8.675848 0 0 1 8.74991,8.57605" />
    <path
       style="fill:#ffffff;fill-opacity:1;stroke:#000000;stroke-width:3.47034121;stroke-linecap:round;stroke-linejoin:round;stroke-miterlimit:4;stroke-dasharray:none;stroke-dashoffset:0;stroke-opacity:1"
       id="path8355-1-6-1-7"
       sodipodi:type="arc"
       sodipodi:cx="352.41101"
       sodipodi:cy="293.58896"
       sodipodi:rx="8.6758595"
       sodipodi:ry="8.675848"
       sodipodi:start="0"
       sodipodi:end="6.2717185"
       sodipodi:open="true"
       d="m 361.08687,293.58896 a 8.6758595,8.675848 0 0 1 -8.65099,8.67581 8.6758595,8.675848 0 0 1 -8.70059,-8.62607 8.6758595,8.675848 0 0 1 8.60111,-8.72527 8.6758595,8.675848 0 0 1 8.7499,8.57605" />
    <path
       style="fill:#ffffff;fill-opacity:1;stroke:#000000;stroke-width:3.47034121;stroke-linecap:round;stroke-linejoin:round;stroke-miterlimit:4;stroke-dasharray:none;stroke-dashoffset:0;stroke-opacity:1"
       id="path8355-1-6-1-7-7"
       sodipodi:type="arc"
       sodipodi:cx="590.41101"
       sodipodi:cy="293.58896"
       sodipodi:rx="8.6758595"
       sodipodi:ry="8.675848"
       sodipodi:start="0"
       sodipodi:end="6.2717185"
       sodipodi:open="true"
       d="m 599.08687,293.58896 a 8.6758595,8.675848 0 0 1 -8.65099,8.67581 8.6758595,8.675848 0 0 1 -8.70059,-8.62607 8.6758595,8.675848 0 0 1 8.60111,-8.72527 8.6758595,8.675848 0 0 1 8.7499,8.57605" />
    <path
       style="fill:#ff0000;fill-opacity:1;stroke:#000000;stroke-width:3;stroke-linecap:round;stroke-linejoin:round;stroke-miterlimit:4;stroke-dasharray:none;stroke-dashoffset:0;stroke-opacity:1"
       id="path8355-1-6-1-7-7-3"
       sodipodi:type="arc"
       sodipodi:cx="473.19171"
       sodipodi:cy="293.97244"
       sodipodi:rx="11.026513"
       sodipodi:ry="10.629277"
       sodipodi:start="0"
       sodipodi:end="6.2717185"
       sodipodi:open="true"
       d="m 484.21822,293.97244 a 11.026513,10.629277 0 0 1 -10.9949,10.62924 11.026513,10.629277 0 0 1 -11.05794,-10.5683 11.026513,10.629277 0 0 1 10.9315,-10.68982 11.026513,10.629277 0 0 1 11.12062,10.507" />
    <path
       style="fill:#ffffff;fill-opacity:1;stroke:#000000;stroke-width:3.47034121;stroke-linecap:round;stroke-linejoin:round;stroke-miterlimit:4;stroke-dasharray:none;stroke-dashoffset:0;stroke-opacity:1"
       id="path8355-1-6-1-7-7-1"
       sodipodi:type="arc"
       sodipodi:cx="292.41101"
       sodipodi:cy="211.58896"
       sodipodi:rx="8.6758595"
       sodipodi:ry="8.675848"
       sodipodi:start="0"
       sodipodi:end="6.2717185"
       sodipodi:open="true"
       d="m 301.08687,211.58896 a 8.6758595,8.675848 0 0 1 -8.65099,8.67581 8.6758595,8.675848 0 0 1 -8.70059,-8.62607 8.6758595,8.675848 0 0 1 8.60111,-8.72527 8.6758595,8.675848 0 0 1 8.7499,8.57605" />
    <path
       style="fill:#ffffff;fill-opacity:1;stroke:#000000;stroke-width:3.47034121;stroke-linecap:round;stroke-linejoin:round;stroke-miterlimit:4;stroke-dasharray:none;stroke-dashoffset:0;stroke-opacity:1"
       id="path8355-1-6-1-7-7-1-3"
       sodipodi:type="arc"
       sodipodi:cx="530.41101"
       sodipodi:cy="211.58896"
       sodipodi:rx="8.6758595"
       sodipodi:ry="8.675848"
       sodipodi:start="0"
       sodipodi:end="6.2717185"
       sodipodi:open="true"
       d="m 539.08687,211.58896 a 8.6758595,8.675848 0 0 1 -8.65099,8.67581 8.6758595,8.675848 0 0 1 -8.70059,-8.62607 8.6758595,8.675848 0 0 1 8.60111,-8.72527 8.6758595,8.675848 0 0 1 8.7499,8.57605" />
    <path
       style="fill:#ffffff;fill-opacity:1;stroke:#000000;stroke-width:3.47034121;stroke-linecap:round;stroke-linejoin:round;stroke-miterlimit:4;stroke-dasharray:none;stroke-dashoffset:0;stroke-opacity:1"
       id="path8355-1-6-1-7-7-1-3-0"
       sodipodi:type="arc"
       sodipodi:cx="410.41101"
       sodipodi:cy="131.58896"
       sodipodi:rx="8.6758595"
       sodipodi:ry="8.675848"
       sodipodi:start="0"
       sodipodi:end="6.2717185"
       sodipodi:open="true"
       d="m 419.08687,131.58896 a 8.6758595,8.675848 0 0 1 -8.65099,8.67581 8.6758595,8.675848 0 0 1 -8.70059,-8.62607 8.6758595,8.675848 0 0 1 8.60111,-8.72527 8.6758595,8.675848 0 0 1 8.7499,8.57605" />
    <path
       style="fill:none;fill-rule:evenodd;stroke:#000000;stroke-width:3;stroke-linecap:butt;stroke-linejoin:miter;stroke-miterlimit:4;stroke-dasharray:none;stroke-opacity:1"
       d="m 406,141.99996 c -110,60 -110,60 -110,60"
       id="path8846"
       inkscape:connector-curvature="0" />
    <path
       style="fill:none;fill-rule:evenodd;stroke:#ff0000;stroke-width:3;stroke-linecap:butt;stroke-linejoin:miter;stroke-miterlimit:4;stroke-dasharray:none;stroke-opacity:1"
       d="m 416,141.99996 c 110,60 110,60 110,60"
       id="path8848"
       inkscape:connector-curvature="0" />
    <path
       style="fill:none;fill-rule:evenodd;stroke:#000000;stroke-width:3;stroke-linecap:butt;stroke-linejoin:miter;stroke-miterlimit:4;stroke-dasharray:none;stroke-opacity:1"
       d="m 286,221.99997 c -50,60 -50,60 -50,60"
       id="path8850"
       inkscape:connector-curvature="0" />
    <path
       style="fill:none;fill-rule:evenodd;stroke:#000000;stroke-width:3;stroke-linecap:butt;stroke-linejoin:miter;stroke-miterlimit:4;stroke-dasharray:none;stroke-opacity:1"
       d="m 296,221.99997 c 50,60 50,60 50,60"
       id="path8852"
       inkscape:connector-curvature="0" />
    <path
       style="fill:none;fill-rule:evenodd;stroke:#ff0000;stroke-width:3;stroke-linecap:butt;stroke-linejoin:miter;stroke-miterlimit:4;stroke-dasharray:none;stroke-opacity:1"
       d="m 526,221.99997 c -50,60 -50,60 -50,60"
       id="path8854"
       inkscape:connector-curvature="0" />
    <path
       style="fill:none;fill-rule:evenodd;stroke:#000000;stroke-width:3;stroke-linecap:butt;stroke-linejoin:miter;stroke-miterlimit:4;stroke-dasharray:none;stroke-opacity:1"
       d="m 536,221.99997 c 50,60 50,60 50,60"
       id="path8856"
       inkscape:connector-curvature="0" />
    <path
       style="fill:none;fill-rule:evenodd;stroke:#7f7f7f;stroke-width:3;stroke-linecap:butt;stroke-linejoin:miter;stroke-miterlimit:4;stroke-dasharray:12, 3;stroke-dashoffset:0;stroke-opacity:1"
       d="m 226,301.99997 c -20,60 -20,60 -20,60"
       id="path8858"
       inkscape:connector-curvature="0" />
    <path
       style="fill:none;fill-rule:evenodd;stroke:#7f7f7f;stroke-width:3;stroke-linecap:butt;stroke-linejoin:miter;stroke-miterlimit:4;stroke-dasharray:12, 3;stroke-dashoffset:0;stroke-opacity:1"
       d="m 236,301.99997 c 20,60 20,60 20,60"
       id="path8860"
       inkscape:connector-curvature="0" />
    <path
       style="fill:none;fill-rule:evenodd;stroke:#7f7f7f;stroke-width:3;stroke-linecap:butt;stroke-linejoin:miter;stroke-miterlimit:4;stroke-dasharray:12, 3;stroke-dashoffset:0;stroke-opacity:1"
       d="m 346,301.99997 c -20,60 -20,60 -20,60"
       id="path8862"
       inkscape:connector-curvature="0" />
    <path
       style="fill:none;fill-rule:evenodd;stroke:#7f7f7f;stroke-width:3;stroke-linecap:butt;stroke-linejoin:miter;stroke-miterlimit:4;stroke-dasharray:12, 3;stroke-dashoffset:0;stroke-opacity:1"
       d="m 356,301.99997 c 20,60 20,60 20,60"
       id="path8864"
       inkscape:connector-curvature="0" />
    <path
       style="fill:none;fill-rule:evenodd;stroke:#7f7f7f;stroke-width:3;stroke-linecap:butt;stroke-linejoin:miter;stroke-miterlimit:4;stroke-dasharray:12, 3;stroke-dashoffset:0;stroke-opacity:1"
       d="m 586,301.99997 c -20,60 -20,60 -20,60"
       id="path8870"
       inkscape:connector-curvature="0" />
    <path
       style="fill:none;fill-rule:evenodd;stroke:#7f7f7f;stroke-width:3;stroke-linecap:butt;stroke-linejoin:miter;stroke-miterlimit:4;stroke-dasharray:12, 3;stroke-dashoffset:0;stroke-opacity:1"
       d="m 596,301.99997 c 20,60 20,60 20,60"
       id="path8872"
       inkscape:connector-curvature="0" />
    <path
       style="fill:none;fill-rule:evenodd;stroke:#7f7f7f;stroke-width:3;stroke-linecap:butt;stroke-linejoin:miter;stroke-miterlimit:4;stroke-dasharray:12, 3;stroke-dashoffset:0;stroke-opacity:1"
       d="m 196,381.99997 c -10,60 -10,60 -10,60"
       id="path8874"
       inkscape:connector-curvature="0" />
    <path
       style="fill:none;fill-rule:evenodd;stroke:#7f7f7f;stroke-width:3;stroke-linecap:butt;stroke-linejoin:miter;stroke-miterlimit:4;stroke-dasharray:12, 3;stroke-dashoffset:0;stroke-opacity:1"
       d="m 206,381.99997 c 10,60 10,60 10,60"
       id="path8876"
       inkscape:connector-curvature="0" />
    <path
       style="fill:none;fill-rule:evenodd;stroke:#7f7f7f;stroke-width:3;stroke-linecap:butt;stroke-linejoin:miter;stroke-miterlimit:4;stroke-dasharray:12, 3;stroke-dashoffset:0;stroke-opacity:1"
       d="m 256,381.99997 c -10,60 -10,60 -10,60"
       id="path8878"
       inkscape:connector-curvature="0" />
    <path
       style="fill:none;fill-rule:evenodd;stroke:#7f7f7f;stroke-width:3;stroke-linecap:butt;stroke-linejoin:miter;stroke-miterlimit:4;stroke-dasharray:12, 3;stroke-dashoffset:0;stroke-opacity:1"
       d="m 266,381.99997 c 10,60 10,60 10,60"
       id="path8880"
       inkscape:connector-curvature="0" />
    <path
       style="fill:none;fill-rule:evenodd;stroke:#7f7f7f;stroke-width:3;stroke-linecap:butt;stroke-linejoin:miter;stroke-miterlimit:4;stroke-dasharray:12, 3;stroke-dashoffset:0;stroke-opacity:1"
       d="m 316,381.99997 c -10,60 -10,60 -10,60"
       id="path8882"
       inkscape:connector-curvature="0" />
    <path
       style="fill:none;fill-rule:evenodd;stroke:#7f7f7f;stroke-width:3;stroke-linecap:butt;stroke-linejoin:miter;stroke-miterlimit:4;stroke-dasharray:12, 3;stroke-dashoffset:0;stroke-opacity:1"
       d="m 326,381.99997 c 10,60 10,60 10,60"
       id="path8884"
       inkscape:connector-curvature="0" />
    <path
       style="fill:none;fill-rule:evenodd;stroke:#7f7f7f;stroke-width:3;stroke-linecap:butt;stroke-linejoin:miter;stroke-miterlimit:4;stroke-dasharray:12, 3;stroke-dashoffset:0;stroke-opacity:1"
       d="m 376,381.99997 c -10,60 -10,60 -10,60"
       id="path8886"
       inkscape:connector-curvature="0" />
    <path
       style="fill:none;fill-rule:evenodd;stroke:#7f7f7f;stroke-width:3;stroke-linecap:butt;stroke-linejoin:miter;stroke-miterlimit:4;stroke-dasharray:12, 3;stroke-dashoffset:0;stroke-opacity:1"
       d="m 386,381.99997 c 10,60 10,60 10,60"
       id="path8888"
       inkscape:connector-curvature="0" />
    <path
       style="fill:none;fill-rule:evenodd;stroke:#7f7f7f;stroke-width:3;stroke-linecap:butt;stroke-linejoin:miter;stroke-miterlimit:4;stroke-dasharray:12, 3;stroke-dashoffset:0;stroke-opacity:1"
       d="m 556,381.99997 c -10,60 -10,60 -10,60"
       id="path8898"
       inkscape:connector-curvature="0" />
    <path
       style="fill:none;fill-rule:evenodd;stroke:#7f7f7f;stroke-width:3;stroke-linecap:butt;stroke-linejoin:miter;stroke-miterlimit:4;stroke-dasharray:12, 3;stroke-dashoffset:0;stroke-opacity:1"
       d="m 566,381.99997 c 10,60 10,60 10,60"
       id="path8900"
       inkscape:connector-curvature="0" />
    <path
       style="fill:none;fill-rule:evenodd;stroke:#7f7f7f;stroke-width:3;stroke-linecap:butt;stroke-linejoin:miter;stroke-miterlimit:4;stroke-dasharray:12, 3;stroke-dashoffset:0;stroke-opacity:1"
       d="m 616,381.99997 c -10,60 -10,60 -10,60"
       id="path8902"
       inkscape:connector-curvature="0" />
    <path
       style="fill:none;fill-rule:evenodd;stroke:#7f7f7f;stroke-width:3;stroke-linecap:butt;stroke-linejoin:miter;stroke-miterlimit:4;stroke-dasharray:12, 3;stroke-dashoffset:0;stroke-opacity:1"
       d="m 626,381.99997 c 10,60 10,60 10,60"
       id="path8904"
       inkscape:connector-curvature="0" />
    <path
       style="fill:none;fill-rule:evenodd;stroke:#000000;stroke-width:5;stroke-linecap:butt;stroke-linejoin:miter;stroke-miterlimit:4;stroke-dasharray:none;stroke-opacity:1;marker-end:url(#Arrow2Send)"
       d="m 472,307.00636 c 0,25.43614 0,25.43614 0,25.43614"
       id="path8127"
       inkscape:connector-curvature="0" />
    <ellipse
       style="fill:#ffffff;fill-opacity:1;stroke:#000000;stroke-width:5.62500007;stroke-miterlimit:4;stroke-dasharray:none;stroke-opacity:1"
       id="path883"
       cx="472.15341"
       cy="383.0217"
       rx="33.66827"
       ry="34.468388" />
    <flowRoot
       xml:space="preserve"
       id="flowRoot885"
       style="font-style:normal;font-weight:normal;font-size:40px;line-height:1.25;font-family:Arial;letter-spacing:0px;word-spacing:0px;fill:#000000;fill-opacity:1;stroke:none;-inkscape-font-specification:Arial;font-stretch:normal;font-variant:normal;"
       transform="matrix(0.93750001,0,0,0.93750001,148.50001,106.50007)"><flowRegion
         id="flowRegion887"
         style="-inkscape-font-specification:Arial;font-family:Arial;font-weight:normal;font-style:normal;font-stretch:normal;font-variant:normal;"><rect
           id="rect889"
           width="42.666668"
           height="42.666668"
           x="321.59998"
           y="270.3999"
           style="-inkscape-font-specification:Arial;font-family:Arial;font-weight:normal;font-style:normal;font-stretch:normal;font-variant:normal;" /></flowRegion><flowPara
         id="flowPara891">VVV</flowPara></flowRoot>    <text
       xml:space="preserve"
       style="font-style:normal;font-weight:normal;font-size:37.5px;line-height:1.25;font-family:sans-serif;letter-spacing:0px;word-spacing:0px;fill:#000000;fill-opacity:1;stroke:none;stroke-width:0.9375"
       x="458.125"
       y="399.99997"
       id="text895"><tspan
         sodipodi:role="line"
         id="tspan893"
         x="458.125"
         y="399.99997"
         style="font-style:normal;font-variant:normal;font-weight:normal;font-stretch:normal;font-size:50px;font-family:Calibri;-inkscape-font-specification:Calibri;stroke-width:0.9375">V</tspan></text>
  </g>
</svg>
